mtllib Ардуино.mtl
o empty_2
usemtl material39
v -30 -27.5 0
v 30 -27.5 0
v 30 -27.5 2
v -30 -27.5 2
v 30 -27.5 0
v 30.868240356445312 -27.42403793334961 0
v 31.710100173950195 -27.198463439941406 0
v 32.5 -26.830127716064453 0
v 33.21393966674805 -26.330223083496094 0
v 33.830223083496094 -25.713937759399414 0
v 34.33012771606445 -25 0
v 34.698463439941406 -24.210100173950195 0
v 34.92403793334961 -23.368240356445312 0
v 35 -22.5 0
v 35 -22.5 2
v 30 -27.5 2
v 30.868240356445312 -27.42403793334961 2
v 31.710100173950195 -27.198463439941406 2
v 32.5 -26.830127716064453 2
v 33.21393966674805 -26.330223083496094 2
v 33.830223083496094 -25.713937759399414 2
v 34.33012771606445 -25 2
v 34.698463439941406 -24.210100173950195 2
v 34.92403793334961 -23.368240356445312 2
v 35 -22.5 0
v 35 22.5 0
v 35 22.5 2
v 35 -22.5 2
v 35 22.5 0
v 34.92403793334961 23.368240356445312 0
v 34.698463439941406 24.210100173950195 0
v 34.33012771606445 25 0
v 33.830223083496094 25.713937759399414 0
v 33.21393966674805 26.330223083496094 0
v 32.5 26.830127716064453 0
v 31.710100173950195 27.198463439941406 0
v 30.868240356445312 27.42403793334961 0
v 30 27.5 0
v 30 27.5 2
v 35 22.5 2
v 34.92403793334961 23.368240356445312 2
v 34.698463439941406 24.210100173950195 2
v 34.33012771606445 25 2
v 33.830223083496094 25.713937759399414 2
v 33.21393966674805 26.330223083496094 2
v 32.5 26.830127716064453 2
v 31.710100173950195 27.198463439941406 2
v 30.868240356445312 27.42403793334961 2
v 30 27.5 0
v -30 27.5 0
v -30 27.5 2
v 30 27.5 2
v -30 27.5 0
v -30.868240356445312 27.42403793334961 0
v -31.710100173950195 27.198463439941406 0
v -32.5 26.830127716064453 0
v -33.21393966674805 26.330223083496094 0
v -33.830223083496094 25.713937759399414 0
v -34.33012771606445 25 0
v -34.698463439941406 24.210100173950195 0
v -34.92403793334961 23.368240356445312 0
v -35 22.5 0
v -35 22.5 2
v -30 27.5 2
v -30.868240356445312 27.42403793334961 2
v -31.710100173950195 27.198463439941406 2
v -32.5 26.830127716064453 2
v -33.21393966674805 26.330223083496094 2
v -33.830223083496094 25.713937759399414 2
v -34.33012771606445 25 2
v -34.698463439941406 24.210100173950195 2
v -34.92403793334961 23.368240356445312 2
v -35 22.5 0
v -35 -22.5 0
v -35 -22.5 2
v -35 22.5 2
v -35 -22.5 0
v -34.92403793334961 -23.368240356445312 0
v -34.698463439941406 -24.210100173950195 0
v -34.33012771606445 -25 0
v -33.830223083496094 -25.713937759399414 0
v -33.21393966674805 -26.330223083496094 0
v -32.5 -26.830127716064453 0
v -31.710100173950195 -27.198463439941406 0
v -30.868240356445312 -27.42403793334961 0
v -30 -27.5 0
v -30 -27.5 2
v -35 -22.5 2
v -34.92403793334961 -23.368240356445312 2
v -34.698463439941406 -24.210100173950195 2
v -34.33012771606445 -25 2
v -33.830223083496094 -25.713937759399414 2
v -33.21393966674805 -26.330223083496094 2
v -32.5 -26.830127716064453 2
v -31.710100173950195 -27.198463439941406 2
v -30.868240356445312 -27.42403793334961 2
v -30 -27.5 2
v 30 -27.5 2
v 30.868240356445312 -27.42403793334961 2
v 31.710100173950195 -27.198463439941406 2
v 32.5 -26.830127716064453 2
v 33.21393966674805 -26.330223083496094 2
v 33.830223083496094 -25.713937759399414 2
v 34.33012771606445 -25 2
v 34.698463439941406 -24.210100173950195 2
v 34.92403793334961 -23.368240356445312 2
v 35 -22.5 2
v 35 22.5 2
v 34.92403793334961 23.368240356445312 2
v 34.698463439941406 24.210100173950195 2
v 34.33012771606445 25 2
v 33.830223083496094 25.713937759399414 2
v 33.21393966674805 26.330223083496094 2
v 32.5 26.830127716064453 2
v 31.710100173950195 27.198463439941406 2
v 30.868240356445312 27.42403793334961 2
v 30 27.5 2
v -30 27.5 2
v -30.868240356445312 27.42403793334961 2
v -31.710100173950195 27.198463439941406 2
v -32.5 26.830127716064453 2
v -33.21393966674805 26.330223083496094 2
v -33.830223083496094 25.713937759399414 2
v -34.33012771606445 25 2
v -34.698463439941406 24.210100173950195 2
v -34.92403793334961 23.368240356445312 2
v -35 22.5 2
v -35 -22.5 2
v -34.92403793334961 -23.368240356445312 2
v -34.698463439941406 -24.210100173950195 2
v -34.33012771606445 -25 2
v -33.830223083496094 -25.713937759399414 2
v -33.21393966674805 -26.330223083496094 2
v -32.5 -26.830127716064453 2
v -31.710100173950195 -27.198463439941406 2
v -30.868240356445312 -27.42403793334961 2
v -30 -27.5 0
v 30 -27.5 0
v 30.868240356445312 -27.42403793334961 0
v 31.710100173950195 -27.198463439941406 0
v 32.5 -26.830127716064453 0
v 33.21393966674805 -26.330223083496094 0
v 33.830223083496094 -25.713937759399414 0
v 34.33012771606445 -25 0
v 34.698463439941406 -24.210100173950195 0
v 34.92403793334961 -23.368240356445312 0
v 35 -22.5 0
v 35 22.5 0
v 34.92403793334961 23.368240356445312 0
v 34.698463439941406 24.210100173950195 0
v 34.33012771606445 25 0
v 33.830223083496094 25.713937759399414 0
v 33.21393966674805 26.330223083496094 0
v 32.5 26.830127716064453 0
v 31.710100173950195 27.198463439941406 0
v 30.868240356445312 27.42403793334961 0
v 30 27.5 0
v -30 27.5 0
v -30.868240356445312 27.42403793334961 0
v -31.710100173950195 27.198463439941406 0
v -32.5 26.830127716064453 0
v -33.21393966674805 26.330223083496094 0
v -33.830223083496094 25.713937759399414 0
v -34.33012771606445 25 0
v -34.698463439941406 24.210100173950195 0
v -34.92403793334961 23.368240356445312 0
v -35 22.5 0
v -35 -22.5 0
v -34.92403793334961 -23.368240356445312 0
v -34.698463439941406 -24.210100173950195 0
v -34.33012771606445 -25 0
v -33.830223083496094 -25.713937759399414 0
v -33.21393966674805 -26.330223083496094 0
v -32.5 -26.830127716064453 0
v -31.710100173950195 -27.198463439941406 0
v -30.868240356445312 -27.42403793334961 0
vn 0 -1 0
vn 0 -1 0
vn 0 -1 0
vn 0 -1 0
vn 0.08715573510115823 -0.9961946987607275 0
vn 0.2022820100990289 -0.9793273142266053 0
vn 0.36926727714375857 -0.9293232365710192 0
vn 0.4999999843788446 -0.8660254128033169 0
vn 0.6427875923322678 -0.7660444576809406 0
vn 0.7844564535048896 -0.6201839022052499 0
vn 0.8660254128033169 -0.4999999843788446 0
vn 0.9396926264280235 -0.3420201278240845 0
vn 0.989451175614703 -0.1448667355699099 0
vn 0.9961946987607275 -0.08715573510115823 0
vn 0.9961946987607275 -0.08715573510115823 0
vn 0.08715573510115823 -0.9961946987607275 0
vn 0.1448667355699099 -0.989451175614703 0
vn 0.31448230214382816 -0.9492633362973195 0
vn 0.5000000067305869 -0.8660253998985324 0
vn 0.6427875923322678 -0.7660444576809406 0
vn 0.7469813388286856 -0.6648450040736595 0
vn 0.8660254128033169 -0.4999999843788446 0
vn 0.9396926264280235 -0.3420201278240845 0
vn 0.9793273142266053 -0.2022820100990289 0
vn 1 0 0
vn 1 0 0
vn 1 0 0
vn 1 0 0
vn 0.9961946987607275 0.08715573510115823 0
vn 0.9793273142266053 0.2022820100990289 0
vn 0.9293232365710192 0.36926727714375857 0
vn 0.8660254128033169 0.4999999843788446 0
vn 0.7660444576809406 0.6427875923322678 0
vn 0.6201839022052499 0.7844564535048896 0
vn 0.4999999843788446 0.8660254128033169 0
vn 0.3420201278240845 0.9396926264280235 0
vn 0.1448667355699099 0.989451175614703 0
vn 0.08715573510115823 0.9961946987607275 0
vn 0.08715573510115823 0.9961946987607275 0
vn 0.9961946987607275 0.08715573510115823 0
vn 0.989451175614703 0.1448667355699099 0
vn 0.9492633362973195 0.31448230214382816 0
vn 0.8660253998985324 0.5000000067305869 0
vn 0.7660444576809406 0.6427875923322678 0
vn 0.6648450040736595 0.7469813388286856 0
vn 0.4999999843788446 0.8660254128033169 0
vn 0.3420201278240845 0.9396926264280235 0
vn 0.2022820100990289 0.9793273142266053 0
vn 0 1 0
vn 0 1 0
vn 0 1 0
vn 0 1 0
vn -0.08715573510115823 0.9961946987607275 0
vn -0.2022820100990289 0.9793273142266053 0
vn -0.36926727714375857 0.9293232365710192 0
vn -0.4999999843788446 0.8660254128033169 0
vn -0.6427875923322678 0.7660444576809406 0
vn -0.7844564535048896 0.6201839022052499 0
vn -0.8660254128033169 0.4999999843788446 0
vn -0.9396926264280235 0.3420201278240845 0
vn -0.989451175614703 0.1448667355699099 0
vn -0.9961946987607275 0.08715573510115823 0
vn -0.9961946987607275 0.08715573510115823 0
vn -0.08715573510115823 0.9961946987607275 0
vn -0.1448667355699099 0.989451175614703 0
vn -0.31448230214382816 0.9492633362973195 0
vn -0.5000000067305869 0.8660253998985324 0
vn -0.6427875923322678 0.7660444576809406 0
vn -0.7469813388286856 0.6648450040736595 0
vn -0.8660254128033169 0.4999999843788446 0
vn -0.9396926264280235 0.3420201278240845 0
vn -0.9793273142266053 0.2022820100990289 0
vn -1 0 0
vn -1 0 0
vn -1 0 0
vn -1 0 0
vn -0.9961946987607275 -0.08715573510115823 0
vn -0.9793273142266053 -0.2022820100990289 0
vn -0.9293232365710192 -0.36926727714375857 0
vn -0.8660254128033169 -0.4999999843788446 0
vn -0.7660444576809406 -0.6427875923322678 0
vn -0.6201839022052499 -0.7844564535048896 0
vn -0.4999999843788446 -0.8660254128033169 0
vn -0.3420201278240845 -0.9396926264280235 0
vn -0.1448667355699099 -0.989451175614703 0
vn -0.08715573510115823 -0.9961946987607275 0
vn -0.08715573510115823 -0.9961946987607275 0
vn -0.9961946987607275 -0.08715573510115823 0
vn -0.989451175614703 -0.1448667355699099 0
vn -0.9492633362973195 -0.31448230214382816 0
vn -0.8660253998985324 -0.5000000067305869 0
vn -0.7660444576809406 -0.6427875923322678 0
vn -0.6648450040736595 -0.7469813388286856 0
vn -0.4999999843788446 -0.8660254128033169 0
vn -0.3420201278240845 -0.9396926264280235 0
vn -0.2022820100990289 -0.9793273142266053 0
vn 0 0 1
vn 0 0 1
vn 0 0 1
vn 0 0 1
vn 0 0 1
vn 0 0 1
vn 0 0 1
vn 0 0 1
vn 0 0 1
vn 0 0 1
vn 0 0 1
vn 0 0 1
vn 0 0 1
vn 0 0 1
vn 0 0 1
vn 0 0 1
vn 0 0 1
vn 0 0 1
vn 0 0 1
vn 0 0 1
vn 0 0 1
vn 0 0 1
vn 0 0 1
vn 0 0 1
vn 0 0 1
vn 0 0 1
vn 0 0 1
vn 0 0 1
vn 0 0 1
vn 0 0 1
vn 0 0 1
vn 0 0 1
vn 0 0 1
vn 0 0 1
vn 0 0 1
vn 0 0 1
vn 0 0 1
vn 0 0 1
vn 0 0 1
vn 0 0 1
vn 0 0 -1
vn 0 0 -1
vn 0 0 -1
vn 0 0 -1
vn 0 0 -1
vn 0 0 -1
vn 0 0 -1
vn 0 0 -1
vn 0 0 -1
vn 0 0 -1
vn 0 0 -1
vn 0 0 -1
vn 0 0 -1
vn 0 0 -1
vn 0 0 -1
vn 0 0 -1
vn 0 0 -1
vn 0 0 -1
vn 0 0 -1
vn 0 0 -1
vn 0 0 -1
vn 0 0 -1
vn 0 0 -1
vn 0 0 -1
vn 0 0 -1
vn 0 0 -1
vn 0 0 -1
vn 0 0 -1
vn 0 0 -1
vn 0 0 -1
vn 0 0 -1
vn 0 0 -1
vn 0 0 -1
vn 0 0 -1
vn 0 0 -1
vn 0 0 -1
vn 0 0 -1
vn 0 0 -1
vn 0 0 -1
vn 0 0 -1
f 3//3 1//1 2//2
f 3//3 4//4 1//1
f 17//17 5//5 6//6
f 17//17 16//16 5//5
f 18//18 6//6 7//7
f 18//18 17//17 6//6
f 19//19 7//7 8//8
f 19//19 8//8 9//9
f 19//19 18//18 7//7
f 20//20 19//19 9//9
f 21//21 9//9 10//10
f 21//21 20//20 9//9
f 22//22 10//10 11//11
f 22//22 11//11 12//12
f 22//22 21//21 10//10
f 23//23 22//22 12//12
f 24//24 12//12 13//13
f 24//24 23//23 12//12
f 15//15 13//13 14//14
f 15//15 24//24 13//13
f 27//27 25//25 26//26
f 27//27 28//28 25//25
f 41//41 29//29 30//30
f 41//41 40//40 29//29
f 42//42 30//30 31//31
f 42//42 41//41 30//30
f 43//43 31//31 32//32
f 43//43 32//32 33//33
f 43//43 42//42 31//31
f 44//44 43//43 33//33
f 45//45 33//33 34//34
f 45//45 44//44 33//33
f 46//46 34//34 35//35
f 46//46 35//35 36//36
f 46//46 45//45 34//34
f 47//47 46//46 36//36
f 48//48 36//36 37//37
f 48//48 47//47 36//36
f 39//39 37//37 38//38
f 39//39 48//48 37//37
f 51//51 49//49 50//50
f 51//51 52//52 49//49
f 65//65 53//53 54//54
f 65//65 64//64 53//53
f 66//66 54//54 55//55
f 66//66 65//65 54//54
f 67//67 55//55 56//56
f 67//67 56//56 57//57
f 67//67 66//66 55//55
f 68//68 67//67 57//57
f 69//69 57//57 58//58
f 69//69 68//68 57//57
f 70//70 58//58 59//59
f 70//70 59//59 60//60
f 70//70 69//69 58//58
f 71//71 70//70 60//60
f 72//72 60//60 61//61
f 72//72 71//71 60//60
f 63//63 61//61 62//62
f 63//63 72//72 61//61
f 75//75 73//73 74//74
f 75//75 76//76 73//73
f 89//89 77//77 78//78
f 89//89 88//88 77//77
f 90//90 78//78 79//79
f 90//90 89//89 78//78
f 91//91 79//79 80//80
f 91//91 80//80 81//81
f 91//91 90//90 79//79
f 92//92 91//91 81//81
f 93//93 81//81 82//82
f 93//93 92//92 81//81
f 94//94 82//82 83//83
f 94//94 83//83 84//84
f 94//94 93//93 82//82
f 95//95 94//94 84//84
f 96//96 84//84 85//85
f 96//96 95//95 84//84
f 87//87 85//85 86//86
f 87//87 96//96 85//85
f 115//115 112//112 113//113
f 115//115 113//113 114//114
f 109//109 110//110 111//111
f 109//109 111//111 112//112
f 116//116 112//112 115//115
f 116//116 109//109 112//112
f 117//117 108//108 109//109
f 117//117 109//109 116//116
f 107//107 108//108 117//117
f 103//103 104//104 105//105
f 103//103 105//105 106//106
f 102//102 103//103 106//106
f 101//101 102//102 106//106
f 100//100 106//106 107//107
f 100//100 101//101 106//106
f 98//98 99//99 100//100
f 98//98 107//107 117//117
f 98//98 100//100 107//107
f 121//121 119//119 120//120
f 122//122 118//118 119//119
f 122//122 119//119 121//121
f 123//123 118//118 122//122
f 124//124 118//118 123//123
f 125//125 118//118 124//124
f 126//126 118//118 125//125
f 127//127 118//118 126//126
f 97//97 117//117 118//118
f 97//97 98//98 117//117
f 97//97 118//118 127//127
f 128//128 97//97 127//127
f 131//131 129//129 130//130
f 133//133 134//134 135//135
f 133//133 135//135 136//136
f 132//132 97//97 128//128
f 132//132 129//129 131//131
f 132//132 133//133 136//136
f 132//132 128//128 129//129
f 132//132 136//136 97//97
f 155//155 153//153 152//152
f 155//155 154//154 153//153
f 149//149 151//151 150//150
f 149//149 152//152 151//151
f 156//156 155//155 152//152
f 156//156 152//152 149//149
f 157//157 149//149 148//148
f 157//157 156//156 149//149
f 147//147 157//157 148//148
f 143//143 145//145 144//144
f 143//143 146//146 145//145
f 142//142 146//146 143//143
f 141//141 146//146 142//142
f 140//140 147//147 146//146
f 140//140 146//146 141//141
f 138//138 140//140 139//139
f 138//138 157//157 147//147
f 138//138 147//147 140//140
f 161//161 160//160 159//159
f 162//162 159//159 158//158
f 162//162 161//161 159//159
f 163//163 162//162 158//158
f 164//164 163//163 158//158
f 165//165 164//164 158//158
f 166//166 165//165 158//158
f 167//167 166//166 158//158
f 137//137 158//158 157//157
f 137//137 157//157 138//138
f 137//137 167//167 158//158
f 168//168 167//167 137//137
f 171//171 170//170 169//169
f 173//173 175//175 174//174
f 173//173 176//176 175//175
f 172//172 168//168 137//137
f 172//172 171//171 169//169
f 172//172 176//176 173//173
f 172//172 169//169 168//168
f 172//172 137//137 176//176
o empty_3
usemtl material40
v -29.5 27.5 2
v -29.5 -27.5 2
v -29.5 -27.5 3
v -29.5 27.5 3
v -29.5 -27.5 2
v 25.5 -27.5 2
v 25.5 -27.5 3
v -29.5 -27.5 3
v 25.5 -27.5 2
v 25.5 27.5 2
v 25.5 27.5 3
v 25.5 -27.5 3
v 25.5 27.5 2
v -29.5 27.5 2
v -29.5 27.5 3
v 25.5 27.5 3
v -29.5 27.5 3
v -29.5 -27.5 3
v 25.5 -27.5 3
v 25.5 27.5 3
v -29.5 27.5 2
v -29.5 -27.5 2
v 25.5 -27.5 2
v 25.5 27.5 2
vn -1 0 0
vn -1 0 0
vn -1 0 0
vn -1 0 0
vn 0 -1 0
vn 0 -1 0
vn 0 -1 0
vn 0 -1 0
vn 1 0 0
vn 1 0 0
vn 1 0 0
vn 1 0 0
vn 0 1 0
vn 0 1 0
vn 0 1 0
vn 0 1 0
vn 0 0 1
vn 0 0 1
vn 0 0 1
vn 0 0 1
vn 0 0 -1
vn 0 0 -1
vn 0 0 -1
vn 0 0 -1
f 179//179 177//177 178//178
f 179//179 180//180 177//177
f 183//183 181//181 182//182
f 183//183 184//184 181//181
f 187//187 185//185 186//186
f 187//187 188//188 185//185
f 191//191 189//189 190//190
f 191//191 192//192 189//189
f 194//194 195//195 196//196
f 194//194 196//196 193//193
f 198//198 200//200 199//199
f 198//198 197//197 200//200
o empty_4
usemtl material41
v -15 -10 3
v 25 -10 3
v 25 -10 13
v -15 -10 13
v -15 -10 3
v 25 -10 3
v 25 -8 3
v -15 -8 3
v 25 -10 3
v 25 -8 3
v 25 -8 13
v 25 -10 13
v -15 -10 13
v 25 -10 13
v 25 -8 13
v -15 -8 13
v -15 -8 3
v -15 -10 3
v -15 -10 13
v -15 -8 13
v 25 -8 3
v -15 -8 3
v -15 -8 13
v 25 -8 13
vn 0 -1 0
vn 0 -1 0
vn 0 -1 0
vn 0 -1 0
vn 0 0 -1
vn 0 0 -1
vn 0 0 -1
vn 0 0 -1
vn 1 0 0
vn 1 0 0
vn 1 0 0
vn 1 0 0
vn 0 0 1
vn 0 0 1
vn 0 0 1
vn 0 0 1
vn -1 0 0
vn -1 0 0
vn -1 0 0
vn -1 0 0
vn 0 1 0
vn 0 1 0
vn 0 1 0
vn 0 1 0
f 203//203 201//201 202//202
f 203//203 204//204 201//201
f 206//206 208//208 207//207
f 206//206 205//205 208//208
f 212//212 209//209 210//210
f 211//211 212//212 210//210
f 214//214 215//215 216//216
f 214//214 216//216 213//213
f 220//220 217//217 218//218
f 219//219 220//220 218//218
f 223//223 221//221 222//222
f 223//223 224//224 221//221
o empty_5
usemtl material42
v -15 8 3
v 25 8 3
v 25 8 13
v -15 8 13
v 25 8 3
v 25 10 3
v 25 10 13
v 25 8 13
v 25 10 3
v -15 10 3
v -15 10 13
v 25 10 13
v -15 10 3
v -15 8 3
v -15 8 13
v -15 10 13
v -15 8 13
v 25 8 13
v 25 10 13
v -15 10 13
v -15 8 3
v 25 8 3
v 25 10 3
v -15 10 3
vn 0 -1 0
vn 0 -1 0
vn 0 -1 0
vn 0 -1 0
vn 1 0 0
vn 1 0 0
vn 1 0 0
vn 1 0 0
vn 0 1 0
vn 0 1 0
vn 0 1 0
vn 0 1 0
vn -1 0 0
vn -1 0 0
vn -1 0 0
vn -1 0 0
vn 0 0 1
vn 0 0 1
vn 0 0 1
vn 0 0 1
vn 0 0 -1
vn 0 0 -1
vn 0 0 -1
vn 0 0 -1
f 227//227 225//225 226//226
f 227//227 228//228 225//225
f 232//232 229//229 230//230
f 231//231 232//232 230//230
f 235//235 233//233 234//234
f 235//235 236//236 233//233
f 240//240 237//237 238//238
f 239//239 240//240 238//238
f 242//242 243//243 244//244
f 242//242 244//244 241//241
f 246//246 248//248 247//247
f 246//246 245//245 248//248
o empty_6
usemtl material43
v 26 10 13
v -15 10 13
v -15 10 15
v 26 10 15
v -15 10 13
v -15 -10 13
v -15 -10 15
v -15 10 15
v -15 -10 13
v 26 -10 13
v 26 -10 15
v -15 -10 15
v 26 -10 13
v 26 10 13
v 26 10 15
v 26 -10 15
v 26 10 15
v -15 10 15
v -15 -10 15
v 26 -10 15
v 26 10 13
v -15 10 13
v -15 -10 13
v 26 -10 13
vn 0 1 0
vn 0 1 0
vn 0 1 0
vn 0 1 0
vn -1 0 0
vn -1 0 0
vn -1 0 0
vn -1 0 0
vn 0 -1 0
vn 0 -1 0
vn 0 -1 0
vn 0 -1 0
vn 1 0 0
vn 1 0 0
vn 1 0 0
vn 1 0 0
vn 0 0 1
vn 0 0 1
vn 0 0 1
vn 0 0 1
vn 0 0 -1
vn 0 0 -1
vn 0 0 -1
vn 0 0 -1
f 251//251 249//249 250//250
f 251//251 252//252 249//249
f 255//255 253//253 254//254
f 255//255 256//256 253//253
f 259//259 257//257 258//258
f 259//259 260//260 257//257
f 263//263 261//261 262//262
f 263//263 264//264 261//261
f 267//267 265//265 266//266
f 267//267 268//268 265//265
f 271//271 270//270 269//269
f 271//271 269//269 272//272
