mtllib Основание.mtl
o empty_2
usemtl material52
v -115 115 0
v -115 -115 0
v -115 -115 75
v -115 115 75
v -115 -115 0
v 115 -115 0
v 115 -115 75
v -115 -115 75
v 115 -115 0
v 115 115 0
v 115 115 75
v 115 -115 75
v 115 115 0
v -115 115 0
v -115 115 75
v 115 115 75
v -115 115 75
v -115 -115 75
v 115 -115 75
v 115 115 75
v -115 115 0
v -115 -115 0
v 115 -115 0
v 115 115 0
vn -1 0 0
vn -1 0 0
vn -1 0 0
vn -1 0 0
vn 0 -1 0
vn 0 -1 0
vn 0 -1 0
vn 0 -1 0
vn 1 0 0
vn 1 0 0
vn 1 0 0
vn 1 0 0
vn 0 1 0
vn 0 1 0
vn 0 1 0
vn 0 1 0
vn 0 0 1
vn 0 0 1
vn 0 0 1
vn 0 0 1
vn 0 0 -1
vn 0 0 -1
vn 0 0 -1
vn 0 0 -1
f 2//2 4//4 1//1
f 3//3 4//4 2//2
f 6//6 8//8 5//5
f 7//7 8//8 6//6
f 10//10 12//12 9//9
f 11//11 12//12 10//10
f 14//14 16//16 13//13
f 15//15 16//16 14//14
f 18//18 19//19 20//20
f 18//18 20//20 17//17
f 22//22 24//24 23//23
f 22//22 21//21 24//24
